<?xml version="1.0" standalone="no"?>
<!DOCTYPE svg PUBLIC "-//W3C//DTD SVG 20010904//EN"
 "http://www.w3.org/TR/2001/REC-SVG-20010904/DTD/svg10.dtd">
<svg version="1.0" xmlns="http://www.w3.org/2000/svg"
 width="2406.000000pt" height="2406.000000pt" viewBox="0 0 2406.000000 2406.000000"
 preserveAspectRatio="xMidYMid meet">
<metadata>
Created by potrace 1.14, written by Peter Selinger 2001-2017
</metadata>
<g transform="translate(0.000000,2406.000000) scale(0.100000,-0.100000)"
fill="#000000" stroke="none">
<path d="M7630 16281 l0 -4219 -42 3 c-102 7 -226 16 -263 20 -277 27 -1131
27 -1505 0 -161 -12 -208 -16 -250 -20 -25 -2 -76 -7 -115 -10 -38 -4 -83 -8
-100 -10 -16 -2 -57 -7 -90 -10 -33 -4 -71 -8 -85 -10 -14 -2 -61 -9 -105 -14
-44 -6 -89 -12 -100 -15 -11 -2 -47 -7 -80 -10 -33 -4 -67 -9 -75 -11 -8 -2
-31 -6 -50 -9 -19 -3 -87 -15 -150 -26 -63 -12 -128 -23 -145 -26 -48 -9 -307
-64 -345 -74 -19 -5 -48 -12 -65 -15 -36 -6 -205 -49 -295 -74 -25 -7 -52 -14
-60 -16 -25 -5 -254 -73 -283 -84 -15 -6 -27 -8 -27 -5 0 4 -6 2 -12 -4 -7 -5
-46 -20 -86 -31 -128 -38 -524 -189 -657 -251 -22 -10 -65 -29 -95 -42 l-54
-24 102 -65 c57 -35 113 -71 126 -79 12 -8 47 -30 77 -48 30 -18 170 -107 313
-197 142 -91 262 -165 267 -165 5 0 9 -4 9 -10 0 -5 11 -12 25 -16 14 -3 25
-9 25 -14 0 -4 10 -11 22 -17 21 -9 33 -7 223 51 6 2 17 6 25 9 15 6 92 27
120 32 8 2 40 10 71 19 31 9 66 18 78 21 11 2 25 6 29 9 5 3 19 7 33 10 13 2
76 17 139 31 63 14 126 29 140 31 14 3 44 9 68 15 23 5 59 12 80 15 20 3 39 7
42 9 3 2 24 6 46 9 22 4 49 8 59 10 83 16 198 36 235 40 25 3 54 8 65 10 19 3
79 13 135 21 14 2 52 7 85 10 33 4 71 8 85 10 14 2 50 6 80 10 30 3 66 8 80
10 14 2 61 7 105 10 44 4 94 8 110 9 442 43 1243 53 1675 21 25 -1 92 -6 150
-10 58 -4 116 -9 130 -10 14 -1 37 -3 53 -4 l27 -1 0 -474 0 -475 -22 4 c-13
3 -47 7 -78 9 -30 3 -89 8 -130 12 -77 7 -418 6 -480 0 -19 -3 -75 -7 -125
-11 -49 -4 -92 -8 -95 -10 -3 -2 -34 -6 -70 -10 -68 -7 -306 -49 -375 -66 -22
-5 -50 -12 -61 -14 -177 -39 -514 -147 -690 -220 -60 -26 -113 -47 -119 -49
-32 -8 -312 -145 -420 -206 -49 -28 -101 -56 -115 -62 -14 -7 -27 -15 -30 -18
-3 -3 -14 -10 -25 -17 -11 -7 -49 -30 -85 -53 -36 -23 -74 -46 -85 -53 -11 -7
-22 -15 -25 -18 -3 -3 -27 -21 -55 -39 -27 -19 -54 -38 -60 -42 -5 -4 -36 -28
-67 -53 -32 -26 -58 -44 -58 -41 0 3 -15 -9 -32 -25 -18 -17 -46 -40 -61 -52
-109 -84 -355 -328 -464 -458 -222 -266 -382 -542 -476 -819 -26 -76 -57 -186
-63 -228 -2 -12 -6 -32 -8 -45 -16 -87 -20 -140 -20 -272 1 -228 41 -406 135
-599 40 -81 116 -201 154 -243 11 -12 43 -47 70 -79 62 -70 188 -177 280 -237
39 -26 75 -51 82 -57 7 -5 15 -10 19 -10 4 0 23 -10 43 -22 20 -13 38 -23 41
-23 3 -1 43 -19 90 -42 76 -36 291 -116 352 -129 39 -9 53 -12 53 -14 0 -2 3
-3 130 -29 55 -11 114 -22 130 -25 65 -10 112 -16 165 -21 30 -3 80 -8 110
-11 65 -8 450 -8 530 0 30 2 89 7 130 11 41 4 86 9 100 11 14 3 48 7 75 10 70
8 440 82 500 100 28 8 60 17 73 20 23 5 218 66 329 103 70 23 74 25 230 90 39
16 74 27 77 24 3 -4 6 -1 6 5 0 7 4 12 9 12 21 0 348 156 356 170 3 6 15 10
26 10 10 0 19 3 19 8 0 4 26 20 58 36 31 17 83 47 115 68 32 21 60 38 63 38 4
0 77 46 99 63 6 4 48 34 95 66 47 33 90 63 95 68 6 4 40 30 75 58 36 27 67 52
70 55 3 3 30 25 60 50 174 141 414 393 548 575 28 39 56 75 61 81 12 15 156
246 159 256 1 4 25 54 52 110 50 105 99 225 105 259 2 11 7 24 10 29 3 5 8 19
11 30 2 11 6 28 9 38 37 140 56 289 56 435 0 90 1 97 19 97 20 0 20 15 20
1326 l0 1326 79 77 c43 42 113 109 156 150 42 40 75 74 73 76 -2 2 -52 18
-113 35 -123 36 -118 35 -162 45 l-33 8 0 3258 0 3259 4565 0 4565 0 0 -3106
0 -3106 -87 7 c-49 3 -113 8 -143 10 -307 26 -1287 26 -1501 0 -14 -2 -71 -6
-125 -10 -54 -3 -115 -8 -134 -10 -19 -2 -69 -6 -110 -10 -41 -4 -83 -9 -92
-10 -9 -2 -49 -7 -89 -10 -40 -4 -82 -9 -93 -11 -12 -2 -41 -6 -66 -9 -48 -5
-126 -16 -150 -20 -8 -2 -51 -8 -95 -15 -44 -6 -91 -13 -105 -16 -14 -3 -38
-7 -55 -9 -70 -11 -101 -16 -115 -20 -18 -5 -66 -15 -100 -20 -46 -7 -94 -16
-165 -32 -38 -8 -81 -17 -95 -19 -14 -3 -72 -16 -130 -30 -129 -30 -149 -35
-152 -33 -2 0 -15 -4 -31 -10 -15 -6 -38 -13 -50 -15 -12 -3 -58 -15 -102 -27
-44 -11 -84 -22 -90 -23 -5 -2 -37 -11 -70 -21 -33 -10 -66 -20 -73 -21 -8 -1
-16 -4 -18 -7 -3 -3 94 -107 100 -107 2 0 219 -207 241 -230 18 -18 106 -104
169 -164 33 -32 111 -107 173 -167 61 -60 118 -109 126 -109 8 0 92 15 188 34
96 19 193 36 217 40 24 3 84 13 135 21 51 9 103 18 117 20 68 10 109 15 155
20 43 4 133 15 255 30 19 2 69 7 110 10 41 4 89 9 105 11 17 2 77 6 135 10 58
3 121 7 140 9 228 24 1159 24 1400 0 35 -3 234 -17 258 -18 9 0 12 -101 12
-469 l0 -469 -132 7 c-222 12 -483 4 -688 -21 -120 -15 -290 -42 -350 -55 -25
-6 -56 -13 -70 -16 -14 -3 -34 -7 -45 -9 -19 -3 -130 -32 -268 -69 -86 -23
-325 -105 -358 -122 -16 -8 -31 -14 -34 -14 -3 0 -6 0 -7 -1 -2 0 -10 -2 -18
-4 -63 -15 -606 -274 -664 -318 -9 -7 -50 -31 -184 -112 -43 -26 -78 -50 -84
-60 -5 -6 -8 -6 -8 0 0 7 -3 7 -8 0 -12 -17 -80 -65 -91 -65 -6 0 -11 -3 -11
-7 -1 -5 -24 -24 -52 -43 -27 -19 -61 -45 -74 -58 -13 -13 -24 -20 -24 -17 0
3 -8 -3 -19 -12 -10 -10 -35 -31 -55 -48 -125 -102 -339 -309 -441 -430 -33
-38 -64 -75 -70 -82 -51 -59 -185 -251 -185 -263 0 -6 -4 -10 -10 -10 -5 0
-10 -5 -10 -12 0 -6 -6 -19 -14 -27 -22 -26 -105 -182 -146 -276 -12 -27 -28
-63 -35 -80 -53 -121 -97 -290 -122 -470 -13 -96 -5 -397 11 -424 2 -3 7 -26
11 -50 18 -124 118 -349 217 -487 47 -67 204 -236 268 -288 113 -93 279 -190
480 -279 92 -41 345 -118 438 -133 15 -2 47 -8 72 -14 54 -11 99 -18 160 -25
25 -4 59 -8 75 -10 158 -22 606 -23 775 -1 19 3 55 7 80 10 47 5 115 15 160
22 14 2 41 7 60 9 19 3 55 10 80 15 25 5 56 12 70 14 36 7 59 12 105 24 22 6
51 13 65 15 14 3 45 10 70 17 25 7 50 13 55 14 6 1 16 5 23 9 6 5 12 6 12 3 0
-3 26 4 58 15 31 11 80 26 107 34 64 18 215 72 237 85 10 5 23 10 29 10 28 0
400 170 554 253 143 77 377 219 403 244 7 6 30 22 52 34 22 13 40 26 40 31 0
4 5 8 10 8 9 0 98 66 180 133 138 113 160 132 308 278 102 100 139 141 260
284 58 68 201 277 250 365 98 174 199 422 227 555 3 14 7 35 10 48 12 54 19
98 30 182 7 47 6 265 -1 315 -3 25 -13 77 -22 115 -15 62 -17 174 -20 987 -2
950 -3 929 36 905 6 -5 12 -6 12 -3 0 3 11 1 25 -4 14 -5 36 -12 48 -14 12 -3
80 -23 151 -45 l128 -40 42 27 c22 15 43 30 44 35 2 4 8 7 14 7 5 0 28 12 51
28 23 15 51 33 62 39 125 77 251 159 253 165 2 5 8 8 14 8 5 0 29 14 53 30 24
17 48 30 54 30 6 0 11 4 11 8 0 5 12 15 28 23 15 7 48 28 74 46 26 18 52 33
57 33 5 0 16 6 23 13 11 11 44 33 126 82 9 6 30 19 45 29 26 18 27 20 10 30
-10 6 -20 11 -23 11 -3 1 -25 10 -50 22 -25 11 -97 42 -160 67 -63 26 -124 51
-135 56 -78 36 -591 213 -685 236 -8 2 -62 16 -120 32 -58 16 -124 35 -147 41
l-43 12 0 4359 0 4360 -6275 0 -6275 0 0 -4219z"/>
<path d="M14910 4525 c-31 -37 -292 -225 -435 -312 -172 -105 -468 -252 -655
-324 -41 -16 -84 -34 -95 -39 -81 -36 -363 -132 -545 -184 -69 -20 -138 -41
-155 -46 -30 -9 -249 -64 -295 -74 -14 -3 -65 -15 -115 -26 -49 -11 -102 -22
-117 -24 -15 -3 -35 -7 -45 -10 -19 -6 -266 -52 -330 -62 -21 -3 -78 -12 -128
-19 -49 -8 -106 -17 -125 -19 -19 -3 -66 -10 -105 -15 -38 -6 -97 -13 -130
-16 -33 -4 -71 -8 -85 -10 -24 -4 -80 -9 -215 -20 -33 -3 -80 -8 -105 -10 -25
-3 -85 -7 -135 -10 -49 -3 -115 -8 -145 -10 -256 -21 -1026 -21 -1300 0 -30 2
-98 7 -150 10 -52 3 -111 8 -130 10 -19 2 -71 6 -115 10 -44 3 -91 8 -105 10
-14 3 -52 7 -85 10 -124 12 -387 47 -455 60 -14 2 -41 7 -60 9 -19 3 -48 8
-65 11 -16 4 -43 8 -60 10 -31 4 -49 7 -144 26 -30 6 -64 12 -75 14 -12 1 -34
5 -51 9 -16 3 -40 9 -52 11 -29 6 -36 8 -168 39 -60 15 -121 29 -135 32 -74
16 -327 85 -450 123 -28 9 -20 14 -317 -174 -87 -54 -161 -103 -164 -108 -3
-5 -8 -8 -10 -6 -4 2 -101 -58 -254 -156 -34 -22 -70 -45 -81 -52 -10 -6 -82
-51 -158 -99 l-139 -88 39 -18 c103 -47 188 -83 279 -119 55 -22 109 -44 120
-49 27 -13 322 -120 360 -130 17 -4 80 -24 140 -43 127 -41 292 -89 403 -118
91 -23 78 -20 222 -53 63 -15 131 -31 150 -36 37 -10 215 -46 265 -54 17 -3
41 -7 55 -10 29 -7 190 -36 235 -43 17 -2 55 -8 85 -13 30 -5 78 -12 105 -15
28 -4 61 -8 75 -10 14 -2 63 -9 110 -15 47 -6 99 -12 115 -15 17 -2 59 -7 95
-10 36 -3 79 -8 95 -10 88 -10 316 -27 565 -41 268 -16 1039 -10 1315 11 28 2
86 6 130 9 151 11 210 16 245 21 19 3 62 8 95 10 33 3 76 7 95 10 19 3 55 7
80 10 25 3 81 10 125 16 44 6 91 13 105 15 14 1 39 5 55 8 17 3 48 8 70 11 22
3 51 7 65 10 14 3 45 8 70 11 25 3 53 7 62 10 25 7 59 14 103 19 21 3 55 10
75 15 19 5 48 11 64 14 16 3 52 10 80 16 28 6 61 12 74 15 13 2 31 6 40 9 9 3
28 7 42 10 14 2 84 18 155 36 151 36 139 34 230 59 39 10 97 27 130 35 84 23
244 73 345 108 47 16 93 31 104 33 10 3 23 9 30 14 6 5 16 10 21 10 17 2 78
22 112 37 17 8 37 14 45 14 8 0 18 4 23 8 6 5 55 26 110 47 55 21 137 56 183
77 46 21 85 38 87 38 3 0 44 18 92 41 223 105 390 194 601 321 64 38 119 74
120 79 2 5 10 9 17 9 8 0 20 6 27 13 7 6 43 32 78 56 67 46 207 148 226 166 6
5 21 17 34 25 12 8 32 24 44 35 12 11 49 42 82 70 75 63 343 332 380 381 16
21 41 52 57 68 15 16 27 33 27 37 0 9 -46 23 -121 38 -24 5 -107 23 -184 41
-77 17 -148 33 -158 35 -10 2 -28 7 -39 11 -11 3 -30 7 -41 9 -12 1 -53 10
-92 19 -38 10 -90 21 -115 26 -25 5 -54 11 -65 14 -117 28 -336 76 -343 76 -5
0 -15 -7 -22 -15z"/>
</g>
</svg>
